<?xml version="1.0" encoding="UTF-8" standalone="no"?>
<!-- Created with Inkscape (http://www.inkscape.org/) -->

<svg
   width="210mm"
   height="297mm"
   viewBox="0 0 210 297"
   version="1.1"
   id="svg1"
   xml:space="preserve"
   inkscape:version="1.3 (0e150ed6c4, 2023-07-21)"
   sodipodi:docname="drawing.svg"
   xmlns:inkscape="http://www.inkscape.org/namespaces/inkscape"
   xmlns:sodipodi="http://sodipodi.sourceforge.net/DTD/sodipodi-0.dtd"
   xmlns:xlink="http://www.w3.org/1999/xlink"
   xmlns="http://www.w3.org/2000/svg"
   xmlns:svg="http://www.w3.org/2000/svg"><sodipodi:namedview
     id="namedview1"
     pagecolor="#ffffff"
     bordercolor="#000000"
     borderopacity="0.25"
     inkscape:showpageshadow="2"
     inkscape:pageopacity="0.0"
     inkscape:pagecheckerboard="0"
     inkscape:deskcolor="#d1d1d1"
     inkscape:document-units="mm"
     inkscape:zoom="0.53362093"
     inkscape:cx="517.22109"
     inkscape:cy="386.97882"
     inkscape:window-width="1440"
     inkscape:window-height="837"
     inkscape:window-x="-8"
     inkscape:window-y="-8"
     inkscape:window-maximized="1"
     inkscape:current-layer="layer1" /><defs
     id="defs1"><linearGradient
       id="swatch8"
       inkscape:swatch="solid"><stop
         style="stop-color:#00ff00;stop-opacity:1;"
         offset="0"
         id="stop8" /></linearGradient><linearGradient
       id="linearGradient5"
       inkscape:collect="always"><stop
         style="stop-color:#000000;stop-opacity:0;"
         offset="0"
         id="stop5" /><stop
         style="stop-color:#00ff00;stop-opacity:0;"
         offset="1"
         id="stop6" /></linearGradient><linearGradient
       inkscape:collect="always"
       xlink:href="#linearGradient5"
       id="linearGradient6"
       x1="514.67626"
       y1="65.971871"
       x2="829.03128"
       y2="65.971871"
       gradientUnits="userSpaceOnUse" /><linearGradient
       inkscape:collect="always"
       xlink:href="#linearGradient5"
       id="linearGradient7"
       gradientUnits="userSpaceOnUse"
       x1="514.67626"
       y1="65.971871"
       x2="829.03128"
       y2="65.971871"
       gradientTransform="translate(-11.405315,-40.909425)" /></defs><g
     inkscape:label="Layer 1"
     inkscape:groupmode="layer"
     id="layer1"><g
       id="text1"
       transform="matrix(0.52800966,0,0,2.3753321,-251.75847,15.111839)"
       style="opacity:0.308008;fill:#000080;stroke:url(#linearGradient6);stroke-width:1;stroke-dasharray:none"><path
         style="color:#000000;-inkscape-font-specification:'Akira Expanded, Normal';fill:#000080;stroke:url(#linearGradient7);stroke-width:1;stroke-linecap:square;stroke-linejoin:bevel;stroke-dasharray:none;stroke-opacity:1;paint-order:stroke fill markers"
         d="M 528.94367,39.854442 V 19.707479 h 13.67273 v -9.349244 h -38.84545 v 9.349244 h 13.67271 v 20.146963 z m 34.03915,-10.117375 10.81967,10.073482 h 15.09925 L 573.60497,25.062445 588.90174,10.314342 h -15.09925 l -10.81967,10.073481 h -5.02576 V 10.314342 h -11.50001 v 29.496207 h 11.50001 V 29.737067 Z m 50.69661,-4.30153 c 0.0658,4.850195 -3.92843,5.684165 -8.64695,5.750005 -4.69657,-0.06584 -8.69085,-0.89981 -8.62501,-5.750005 v -2.875002 h -11.50001 v 3.599239 c -0.0439,11.148865 9.042,14.353066 20.12502,14.375012 11.14886,0 20.14696,-3.248094 20.14696,-14.375012 V 10.336288 h -11.50001 z m 43.56396,2.150765 c -1.05343,2.896949 -4.34542,3.59924 -8.29581,3.59924 -4.69656,-0.06584 -8.69084,-0.943703 -8.625,-5.750005 V 24.7113 c -0.0658,-4.850195 3.92844,-5.684165 8.625,-5.750005 3.95039,0 7.22043,0.680344 8.29581,3.577293 h 11.78532 C 668.30447,12.596786 659.56973,9.6120515 648.94758,9.5901045 637.88651,9.6339945 628.75673,12.838199 628.80062,23.987063 v 2.150765 c -0.0439,11.170811 9.08589,14.375012 20.14696,14.396958 10.62215,0 19.35689,-2.984735 20.08113,-12.948484 z m 15.20898,-17.250014 v 29.496208 h 11.50001 v -7.19848 h 10.271 l 5.55249,7.19848 h 12.24619 l -6.43035,-8.273862 c 1.9313,-0.89981 3.48951,-2.260498 4.65268,-4.038171 1.18511,-1.79962 1.77767,-3.818706 1.77767,-6.035311 0.0878,-6.10115 -5.06966,-11.214704 -11.14886,-11.148864 z m 25.52388,8.625007 c 1.40458,0 2.52385,1.119276 2.52385,2.523857 0,0.680344 -0.24141,1.272902 -0.74618,1.777673 -0.48283,0.482825 -1.07538,0.724238 -1.77767,0.724238 h -14.02387 v -5.025768 z m 17.60117,20.893147 h 34.52197 v -7.571571 h -23.02196 v -3.774812 h 23.02196 v -6.825388 h -23.02196 v -3.774812 h 23.02196 v -7.549624 h -34.52197 z m 81.7949,-10.819665 -6.82539,-18.676542 h -12.94848 l -6.84734,18.676542 -6.82538,-18.676542 h -12.94849 l 12.94849,29.496207 h 13.67272 l 6.47424,-14.748104 6.47424,14.748104 h 13.67272 l 12.94849,-29.496207 h -12.94849 z"
         id="path4" /></g><g
       id="text1-7-6"
       transform="matrix(0.72323397,0,0,2.8339619,-129.44934,28.871375)"
       style="opacity:0.954825;fill:#008080;stroke-width:0;stroke-dasharray:none;paint-order:markers fill stroke"><path
         style="color:#000000;-inkscape-font-specification:'Akira Expanded, Normal';fill:#008080;stroke-width:0;stroke-linecap:square;stroke-linejoin:bevel;stroke-dasharray:none;paint-order:markers fill stroke"
         d="m 304.90001,3.7866007 c -4.22677,0.016773 -8.19679,0.6007017 -11.28125,2.4550777 -2.37288,1.426577 -4.09293,3.725687 -4.76367,6.7636716 V 5.8373824 l -1.5,-1.5 h -8.49024 l -1.5,1.5 v 11.1484366 0.02148 c 0.0187,1.377801 -0.29538,1.697179 -1.06054,2.095703 -0.76088,0.396292 -2.17664,0.599926 -3.82422,0.625 -1.63916,-0.02507 -3.0496,-0.227051 -3.80859,-0.623046 -0.76329,-0.398236 -1.07925,-0.719857 -1.06055,-2.097657 v -0.02148 -2.123047 l -1.5,-1.5 h -8.49024 l -1.5,1.5 v 2.658203 c -0.006,1.723103 0.3586,3.20871 0.88868,4.564453 l -5.57227,-5.375 10.17383,-9.8085926 -1.04102,-2.580078 h -11.15039 l -1.02148,0.402343 -7.55664,7.0351556 h -1.6211 V 5.8217574 l -1.5,-1.5 h -8.49023 l -1.43359,1.433593 -1.40235,-1.402343 h -28.68359 l -1.5,1.5 v 6.9042956 l 1.5,1.5 h 8.5957 v 13.375 l 1.5,1.5 h 8.49219 l 1.5,-1.5 v -13.375 h 8.5957 l 1.33594,-1.335937 v 14.679687 l 1.5,1.5 h 8.49023 l 1.5,-1.5 V 21.6616 h 1.61914 l 7.5586,7.03711 1.02148,0.402343 h 11.15039 l 0.7461,-1.849609 c 3.06345,1.799989 6.97665,2.376481 11.16015,2.384766 h 0.004 c 4.26165,0 8.22664,-0.584522 11.30078,-2.44336 2.72436,-1.647336 4.51732,-4.484526 4.91016,-8.236328 0.38827,3.7591 2.1973,6.594791 4.92773,8.236328 3.08541,1.854944 7.05561,2.434971 11.2832,2.44336 h 0.004 c 4.06203,0 7.86028,-0.539888 10.87891,-2.208985 2.37885,-1.315343 4.16398,-3.469202 4.97656,-6.318359 v 6.507812 l 1.5,1.5 h 8.49023 l 1.5,-1.5 v -3.814453 h 5.34571 l 3.65039,4.730469 1.1875,0.583984 h 9.04297 l 1.125,-2.300781 v 0.816406 l 1.5,1.5 h 25.49023 l 1.5,-1.5 V 22.04246 l -1.39258,-1.392579 1.39258,-1.394531 v -5.039062 l -1.39258,-1.394532 1.36133,-1.361328 7.36523,16.775391 1.375,0.896484 h 10.09375 l 1.375,-0.896484 3.40625,-7.759766 3.40625,7.759766 1.375,0.896484 h 10.09571 l 1.37304,-0.896484 9.56055,-21.7792966 -1.37305,-2.103515 h -9.56054 l -1.41016,0.984375 -3.64453,9.9433586 -3.63281,-9.9414056 -1.40821,-0.986328 h -9.5625 l -1.4082,0.984375 -3.64453,9.9433586 -3.63281,-9.9414056 -1.40821,-0.986328 h -9.5625 l -0.25585,0.390625 -0.39063,-0.390625 h -25.49023 l -1.5,1.5 V 12.169413 C 351.71339,7.7384724 347.8932,4.2868814 343.23027,4.3373824 h -20.96875 l -1.5,1.5 V 12.315897 C 319.94876,9.4712304 318.16315,7.3222854 315.78496,6.0073034 312.76735,4.3387714 308.96918,3.7949917 304.908,3.7866007 Z m 0.002,2.9999997 c 3.78189,0.0078 7.13007,0.573088 9.43164,1.845703 1.87632,1.037476 3.08985,2.4776746 3.61719,4.7148436 h -6.17969 c -0.64839,-0.920185 -1.48944,-1.661604 -2.48828,-2.029297 -1.35011,-0.497004 -2.83242,-0.611328 -4.37695,-0.611328 h -0.0215 c -1.8167,0.02547 -3.60965,0.149682 -5.17579,0.966797 -1.56613,0.817115 -2.70177,2.595397 -2.67187,4.798828 v 0.494141 c -0.03,2.191071 1.10505,3.962331 2.66797,4.783203 1.56292,0.820872 3.35832,0.956891 5.17969,0.982422 h 0.0215 c 1.54731,0 3.03476,-0.11923 4.38672,-0.621094 0.9991,-0.370879 1.83941,-1.114389 2.48437,-2.037109 h 6.17579 c -0.52677,2.246443 -1.74197,3.688611 -3.61915,4.726562 -2.30013,1.271817 -5.6456,1.835731 -9.42578,1.835938 -3.93955,-0.0078 -7.42333,-0.621533 -9.74218,-2.015625 -2.31885,-1.394093 -3.65132,-3.394484 -3.63672,-7.109375 v -0.0059 -1.58789 -0.0059 c -0.0146,-3.705981 1.31692,-5.704949 3.63672,-7.0996086 2.31774,-1.393428 5.80023,-2.008708 9.73632,-2.025391 z m -74.17187,0.535157 h 5.49023 v 5.9374986 l 1.5,1.5 h 3.71094 l 1.02149,-0.402343 7.55859,-7.0351556 h 6.8418 l -8.61914,8.3085926 v 2.160156 l 8.61914,8.310547 h -6.8418 L 242.4528,19.063944 241.43131,18.6616 h -3.71094 l -1.5,1.5 v 5.939453 h -5.49023 z m 49.63476,0.01563 h 5.49024 V 17.52098 c 0,3.703545 -1.32114,5.711219 -3.62695,7.105469 -2.30541,1.394004 -5.77666,2.009549 -9.7461,2.009766 -3.94793,-0.0078 -7.42797,-0.620192 -9.74023,-2.011719 -2.31226,-1.391527 -3.63569,-3.389705 -3.6211,-7.097656 v -0.0059 -1.158203 h 5.49024 v 0.603516 c -0.0299,2.203433 1.10574,3.979759 2.67187,4.796875 1.56614,0.817116 3.35909,0.943284 5.17578,0.96875 h 0.041 c 1.82445,-0.02546 3.62115,-0.149971 5.18945,-0.966797 1.56831,-0.816826 2.70569,-2.595397 2.67578,-4.798828 z m 43.39649,0 h 19.48437 0.0156 c 3.6385,-0.03941 6.76927,3.0631466 6.7168,6.7109366 v 0.02148 c 0,1.369343 -0.34848,2.540669 -1.06641,3.63086 l -0.002,0.0039 c -0.71481,1.092444 -1.63321,1.893006 -2.81446,2.443359 l -0.55078,2.279297 2.86719,3.689453 h -5.23828 l -3.65039,-4.730468 -1.1875,-0.583985 h -7.58399 l -1.5,1.5 v 3.814453 h -5.49023 z m -124.55078,0.01563 h 25.68359 v 3.9042956 h -8.5957 l -1.5,1.5 v 13.375 h -5.49219 v -13.375 l -1.5,-1.5 h -8.5957 z m 156.39258,0 h 22.49023 v 2.576171 h -15.5 l -1.5,1.4999996 v 2.78711 l 1.5,1.5 h 15.5 v 2.039062 h -15.5 l -1.5,1.5 v 2.78711 l 1.5,1.5 h 15.5 v 2.589843 h -22.49023 z m 26.93359,0 h 6.2168 l 4.67968,12.8066396 h 2.81641 l 4.69531,-12.8066396 h 7.46485 l 4.67968,12.8066396 h 2.81641 l 4.69531,-12.8066396 h 6.2168 l -8.24414,18.7792956 h -8.13672 l -4.38672,-9.992187 h -2.74609 l -4.38672,9.992187 h -8.13672 z m -51.78516,3.3535146 -1.5,1.5 v 3.710938 l 1.5,1.5 h 10.35547 c 0.8623,0 1.75941,-0.36097 2.37305,-0.97461 0.61866,-0.618658 0.99023,-1.515867 0.99023,-2.373047 0,-1.833974 -1.5293,-3.363281 -3.36328,-3.363281 z m 1.5,3 h 8.85547 c 0.24023,0 0.36328,0.123058 0.36328,0.363281 0,0.147509 0.0154,0.125197 -0.11132,0.251953 -0.0994,0.09937 -0.0772,0.0957 -0.25196,0.0957 h -8.85547 z m -27.33398,0.002 c 1.36614,9.65e-4 2.54604,0.135925 3.32812,0.423828 0.78486,0.288923 1.14119,0.595938 1.37891,1.236328 l 1.40625,0.978516 h 8.70117 l 1.0293,-1.107422 v 2.941406 l -1.0293,-1.107421 h -8.70117 l -1.41016,0.988281 c -0.23071,0.63448 -0.58599,0.944163 -1.37304,1.236328 -0.78429,0.291135 -1.96667,0.430652 -3.33008,0.431641 -1.64206,-0.02381 -3.05344,-0.23497 -3.81836,-0.636719 -0.7665,-0.402582 -1.0811,-0.728185 -1.0625,-2.085938 v -0.02148 -0.533203 -0.02148 c -0.0187,-1.377801 0.29531,-1.699421 1.05859,-2.097656 0.76171,-0.397411 2.17556,-0.601144 3.82227,-0.625 z m 48.06055,0.361328 v 0.02148 c 5e-5,-0.0035 -0.002,-0.0063 -0.002,-0.0098 1e-5,-0.004 0.002,-0.0077 0.002,-0.01172 z m -0.375,2.644532 v 9.90625 l -3.69532,-4.753907 c 0.96772,-0.698626 1.84707,-1.503758 2.50977,-2.515625 l 0.002,-0.0039 c 0.53781,-0.817501 0.92344,-1.704535 1.1836,-2.632812 z"
         id="path25-2" /></g><path
       style="fill:#333333;fill-opacity:1"
       d="m 90.624612,85.535755 c -0.50294,-0.0596 -1.13577,-0.28181 -1.5188,-0.53326 -0.40189,-0.26384 -0.32681,-0.26906 -0.69563,0.0484 -0.30834,0.26538 -0.30834,0.26538 -0.47292,0.19665 -0.42969,-0.17943 -0.96497,-0.57341 -1.33285,-0.98102 -0.26268,-0.29105 -0.26268,-0.29105 -1.00634,-0.21247 -2.11559,0.22355 -3.58879,0.0631 -5.68139,-0.61892 -0.7132,-0.23243 -1.58157,-0.51317 -1.92972,-0.62386 -0.34815,-0.11069 -0.62498,-0.20926 -0.61519,-0.21905 0.0278,-0.0278 2.09129,-0.28281 2.28836,-0.28281 0.29166,0 0.20272,-0.0706 -0.36588,-0.29035 -3.51025,-1.35678 -5.8046,-3.64921 -7.95518,-7.94851 -0.78224,-1.56382 -0.84032,-1.53927 1.0543,-0.44568 0.29438,0.16992 0.29112,0.14263 -0.0678,-0.56767 -0.88481,-1.75106 -1.1383,-3.48955 -0.78498,-5.3833 0.0703,-0.37694 0.13237,-0.69102 0.13787,-0.69794 0.006,-0.007 0.31606,0.13757 0.69013,0.3211 2.54527,1.24878 4.49059,0.3515 5.4952,-2.53468 0.20602,-0.59188 0.20793,-0.57423 -0.12801,-1.18714 -1.85589,-3.386 -2.08512,-6.88675 -0.61513,-9.39415 0.27249,-0.46479 0.25182,-0.45339 0.71315,-0.39352 1.90812,0.24763 3.78252,1.27719 5.89963,3.24052 0.51501,0.47761 0.51501,0.47761 1.23359,0.23357 1.9009,-0.64556 3.2836,-0.8795 5.10488,-0.8637 0.58365,0.005 1.13083,0.01 1.21594,0.01 0.0851,4.2e-4 0.40348,-0.0139 0.70746,-0.0319 1.37848,-0.0815 3.41414,0.27496 5.28341,0.9251 0.70704,0.24591 0.70704,0.24591 0.99486,-0.0329 2.168278,-2.10028 4.350588,-3.30814 6.323308,-3.49981 0.2874,-0.0279 0.2874,-0.0279 0.45243,0.23131 1.65162,2.59446 1.38069,6.28769 -0.73191,9.97713 -0.19969,0.34875 -0.19969,0.34875 -0.0473,0.78667 1.01019,2.9022 2.99614,3.80114 5.54555,2.51019 0.69497,-0.35191 0.68404,-0.35142 0.71926,-0.0322 0.0142,0.12838 0.0685,0.51199 0.12081,0.85245 0.2627,1.71081 -0.0617,3.49446 -0.93479,5.14012 -0.14515,0.27359 -0.24473,0.49743 -0.22128,0.49743 0.0234,0 0.46438,-0.22975 0.97984,-0.51056 1.14055,-0.62135 1.10749,-0.73688 0.26792,0.93637 -2.12853,4.24214 -4.48719,6.57514 -7.96952,7.8828 -0.48468,0.18201 -0.59163,0.2693 -0.32993,0.2693 0.28147,0 2.35062,0.25543 2.31921,0.2863 -0.0213,0.0209 -3.64129,1.19742 -3.86237,1.25529 -1.098138,0.28742 -3.616608,0.36825 -4.826688,0.1549 -0.12739,-0.0225 -0.1646,0.002 -0.41948,0.27107 -0.39967,0.42258 -0.91036,0.79544 -1.32879,0.97017 -0.16363,0.0683 -0.16363,0.0683 -0.46427,-0.19588 -0.35852,-0.31508 -0.30875,-0.30858 -0.64,-0.0836 -0.6603,0.44839 -1.69834,0.67513 -2.60101,0.56813 z m -2.38735,-1.21677 c 1.93466,-1.60281 3.947,-1.577 5.89122,0.0755 0.19455,0.16536 0.41046,0.0536 0.96387,-0.49883 1.41393,-1.41148 1.72828,-3.54904 0.92581,-6.29532 -0.22582,-0.77281 -0.27627,-0.83776 -0.3742,-0.4817 -0.35016,1.27317 -0.384,1.32047 -0.53328,0.74542 -0.38507,-1.48331 -1.13454,-2.79013 -2.00364,-3.49364 -0.26944,-0.2181 -0.26944,-0.2181 -0.0716,-0.41901 0.25871,-0.26266 0.2546,-0.27654 -0.12913,-0.43629 -1.10781,-0.46118 -2.26795,-0.46695 -3.39819,-0.0169 -0.44802,0.1784 -0.43993,0.16347 -0.21003,0.38797 0.17145,0.16741 0.22583,0.2874 0.13026,0.2874 -0.51673,0 -1.82472,2.095 -2.23373,3.57775 -0.0833,0.30193 -0.15853,0.55606 -0.16721,0.56474 -0.0356,0.0356 -0.34775,-0.94681 -0.40724,-1.28142 -0.0642,-0.36099 -0.21744,-0.029 -0.50609,1.09627 -0.69617,2.71399 -0.13437,4.94024 1.56394,6.19741 0.31453,0.23284 0.26581,0.23366 0.5592,-0.009 z m 2.69687,-2.00361 c -1.52322,-0.59954 -1.95112,-2.18775 -0.75168,-2.78995 1.66771,-0.8373 3.43665,0.52229 2.38325,1.83174 -0.68237,0.84823 -1.17538,1.13777 -1.63157,0.95821 z m -5.82486,0.94959 c 0.77909,-0.0689 0.74237,-0.0424 0.57238,-0.41336 -0.2513,-0.5484 -0.49561,-1.45827 -0.49561,-1.84577 0,-0.0961 -0.0142,-0.0987 -0.6964,-0.1239 -1.46546,-0.0542 -4.17413,-0.68136 -3.42392,-0.79275 0.36383,-0.054 1.02519,-0.41854 1.02519,-0.56504 0,-0.0206 -0.17341,-0.13194 -0.38536,-0.24747 -2.71097,-1.47775 -5.13761,-4.23173 -6.35451,-7.21168 -0.25055,-0.61356 -0.25206,-0.58853 0.0353,-0.58853 2.04413,0 4.46636,-1.82466 4.57835,-3.44885 0.0259,-0.37584 0.0259,-0.37584 0.35753,-0.42833 2.04794,-0.32419 4.24059,0.3474 5.77633,1.76923 0.14904,0.13798 0.27861,0.25088 0.28793,0.25088 0.009,0 0.0166,-0.27359 0.0162,-0.60797 -0.001,-0.87515 0.11289,-1.10413 0.3245,-0.65194 0.59642,1.27452 2.13394,2.87921 2.59075,2.70392 0.18222,-0.0699 0.74111,-1.53372 1.04489,-2.7367 0.29198,-1.15623 0.35652,-1.49171 0.73802,-3.83638 0.0464,-0.28538 0.021,-0.39232 0.23098,0.97276 0.39091,2.54172 1.29681,5.62123 1.65162,5.61447 0.64059,-0.0122 2.63754,-2.2471 2.63754,-2.9518 0,-0.1293 0.11412,-0.0149 0.1924,0.19294 0.0685,0.18176 0.0786,0.30622 0.0621,0.75905 -0.0109,0.29791 -0.0121,0.54165 -0.003,0.54165 0.009,0 0.19036,-0.15141 0.40203,-0.33646 1.55761,-1.36177 3.751028,-2.025 5.605648,-1.69502 0.4387,0.0781 0.41706,0.0591 0.4176,0.3653 0.003,1.56549 2.25351,3.34195 4.45174,3.51362 0.40645,0.0317 0.40645,0.0317 0.19568,0.54022 -1.06436,2.5678 -2.83616,4.82864 -5.02373,6.41037 -0.41376,0.29917 -1.49429,0.96616 -1.67107,1.03152 -0.262948,0.0972 0.4436,0.56522 0.97145,0.64345 0.72916,0.10808 -2.009208,0.73639 -3.440188,0.78935 -0.69095,0.0256 -0.69095,0.0256 -0.7196,0.30519 -0.0428,0.41778 -0.21677,1.05628 -0.4209,1.54482 -0.22176,0.53074 -0.28908,0.48228 0.76208,0.54861 1.35973,0.0858 2.733978,-0.0337 3.603028,-0.31333 0.20968,-0.0675 0.16372,-0.11609 -0.23717,-0.25088 -1.051508,-0.35354 -1.357198,-0.72785 -0.66934,-0.81958 3.74497,-0.49941 7.21082,-3.00985 9.29334,-6.73149 0.40487,-0.72355 0.40454,-0.71881 0.0378,-0.53702 -0.62728,0.31093 -1.30835,0.51833 -1.7021,0.51833 -0.26655,0 -0.27859,0.0418 0.14281,-0.49561 1.57513,-2.00872 2.30845,-3.89324 2.19014,-5.62831 -0.0702,-1.02871 -0.0485,-0.99233 -0.48613,-0.8171 -2.29339,0.91832 -4.41723,0.0358 -5.57395,-2.31616 -0.22157,-0.45051 -0.64318,-1.61364 -0.64318,-1.77438 0,-0.036 -0.0681,-0.0939 -0.15132,-0.1287 -0.26689,-0.11152 -0.31946,-0.24702 -0.21227,-0.54717 0.0497,-0.13915 0.1931,-0.54152 0.31867,-0.89414 0.77059,-2.16399 1.05878,-4.61656 0.6885,-5.8594 -0.12133,-0.40724 -0.14684,-0.42064 -0.48439,-0.25436 -1.14374,0.56342 -1.8494,1.17835 -3.01286,2.6255 -1.293378,1.60875 -2.046008,1.72646 -2.890158,0.45202 -0.15682,-0.23676 -0.17158,-0.2003 0.30122,-0.74424 0.27834,-0.32023 0.3133,-0.39371 0.20672,-0.43461 -2.67359,-1.02595 -5.14572,-1.47351 -6.65823,-1.20541 -0.27757,0.0492 -0.39288,0.0489 -0.70746,-0.002 -1.46086,-0.23465 -3.75809,0.15232 -6.13498,1.03344 -0.64117,0.23768 -0.63024,0.19716 -0.18791,0.69661 0.40978,0.46271 0.39621,0.41665 0.20112,0.68241 -0.92728,1.26321 -1.59001,1.13841 -2.91921,-0.54976 -1.47523,-1.87364 -3.21041,-3.05634 -3.42507,-2.33453 -0.42748,1.43736 -0.006,4.4829 0.90599,6.5448 0.20894,0.47245 0.18614,0.67261 -0.0869,0.76272 -0.13914,0.0459 -0.15905,0.0759 -0.24457,0.36833 -1.04037,3.55714 -3.43402,5.03539 -6.2407,3.85408 -0.14244,-0.06 -0.26773,-0.10901 -0.27843,-0.10901 -0.0708,0 -0.12299,0.71802 -0.10406,1.4305 0.046,1.72893 0.81124,3.50378 2.32663,5.39591 0.1964,0.24523 0.18272,0.26506 -0.1608,0.23304 -0.37491,-0.0349 -1.03138,-0.24041 -1.49219,-0.46704 -0.44439,-0.21855 -0.43921,-0.2372 -0.10504,0.37862 2.06366,3.80287 5.61841,6.3766 9.49183,6.8723 0.41103,0.0526 0.41103,0.0526 0.30951,0.1609 -0.26126,0.2787 -1.11019,0.71972 -1.3854,0.71972 -0.0888,0 -0.12914,0.0928 -0.0593,0.13628 0.44496,0.27717 2.55583,0.45546 3.9415,0.33291 z m 1.11015,-8.50001 c 0.23705,-0.0834 0.73297,-0.37821 0.84566,-0.50272 0.28127,-0.31081 -1.5631,-1.03691 -3.58136,-1.40993 -1.31975,-0.24392 -1.33425,-0.23263 -0.56635,0.44073 1.58113,1.38647 2.44736,1.7726 3.30205,1.47192 z m 11.01706,-0.0376 c 0.70369,-0.26484 1.46608,-0.80186 2.4066,-1.69521 0.408928,-0.38842 0.404378,-0.39239 -0.31616,-0.27539 -1.79412,0.29131 -3.28785,0.75468 -3.98991,1.2377 -0.26975,0.1856 -0.26128,0.21029 0.16242,0.47322 0.6969,0.43246 1.11278,0.49463 1.73705,0.25968 z"
       id="path34" /></g></svg>
